<svg xmlns="http://www.w3.org/2000/svg" width="1180" height="470" viewBox="0 0 1180 470">
<rect width="1180" height="470" fill="#F7F5F0"/>
<text x="66" y="48" font-family="'HarmonyOS Sans SC',sans-serif" font-size="13" fill="#6B6660">全部结果来自本机演示系统实跑，可用对应命令复现</text>
<text x="66" y="100" font-family="'HarmonyOS Sans SC',sans-serif" font-size="16" fill="#17161A">三类注入异常召回率</text><text x="330" y="100" font-family="Cascadia Mono,monospace" font-size="13" fill="#8A8175">验收线 ≥ 90</text><rect x="470" y="87" width="520" height="14" fill="#EDE9E1"/><rect x="470" y="87" width="520.0" height="14" fill="#C0392B"/><text x="1004" y="100" font-family="'Noto Serif SC',serif" font-size="17" font-weight="700" fill="#17161A">100%</text><text x="66" y="122" font-family="'HarmonyOS Sans SC',sans-serif" font-size="12" fill="#A89F92">3 / 3 条故事线检出</text><text x="66" y="158" font-family="'HarmonyOS Sans SC',sans-serif" font-size="16" fill="#17161A">根因 Top3 命中率</text><text x="330" y="158" font-family="Cascadia Mono,monospace" font-size="13" fill="#8A8175">验收线 ≥ 80</text><rect x="470" y="145" width="520" height="14" fill="#EDE9E1"/><rect x="470" y="145" width="520.0" height="14" fill="#C0392B"/><text x="1004" y="158" font-family="'Noto Serif SC',serif" font-size="17" font-weight="700" fill="#17161A">100%</text><text x="66" y="180" font-family="'HarmonyOS Sans SC',sans-serif" font-size="12" fill="#A89F92">每根因 ≥2 条证据</text><text x="66" y="216" font-family="'HarmonyOS Sans SC',sans-serif" font-size="16" fill="#17161A">高风险审批合规率</text><text x="330" y="216" font-family="Cascadia Mono,monospace" font-size="13" fill="#8A8175">验收线 = 100</text><rect x="470" y="203" width="520" height="14" fill="#EDE9E1"/><rect x="470" y="203" width="520.0" height="14" fill="#C0392B"/><text x="1004" y="216" font-family="'Noto Serif SC',serif" font-size="17" font-weight="700" fill="#17161A">100%</text><text x="66" y="238" font-family="'HarmonyOS Sans SC',sans-serif" font-size="12" fill="#A89F92">超标动作全部转人工</text><text x="66" y="274" font-family="'HarmonyOS Sans SC',sans-serif" font-size="16" fill="#17161A">自动执行成功率</text><text x="330" y="274" font-family="Cascadia Mono,monospace" font-size="13" fill="#8A8175">验收线 = 100</text><rect x="470" y="261" width="520" height="14" fill="#EDE9E1"/><rect x="470" y="261" width="520.0" height="14" fill="#C0392B"/><text x="1004" y="274" font-family="'Noto Serif SC',serif" font-size="17" font-weight="700" fill="#17161A">100%</text><text x="66" y="296" font-family="'HarmonyOS Sans SC',sans-serif" font-size="12" fill="#A89F92">低风险动作全部成功</text><text x="66" y="332" font-family="'HarmonyOS Sans SC',sans-serif" font-size="16" fill="#17161A">建议约束违反率</text><text x="330" y="332" font-family="Cascadia Mono,monospace" font-size="13" fill="#8A8175">验收线 = 0</text><rect x="470" y="319" width="520" height="14" fill="#EDE9E1"/><rect x="470" y="319" width="6.0" height="14" fill="#3F6B4A"/><text x="1004" y="332" font-family="'Noto Serif SC',serif" font-size="17" font-weight="700" fill="#17161A">0</text><text x="66" y="354" font-family="'HarmonyOS Sans SC',sans-serif" font-size="12" fill="#A89F92">MOQ / 毛利 / 预算全通过</text><text x="66" y="390" font-family="'HarmonyOS Sans SC',sans-serif" font-size="16" fill="#17161A">指标字典完整性</text><text x="330" y="390" font-family="Cascadia Mono,monospace" font-size="13" fill="#8A8175">验收线 全部通过</text><rect x="470" y="377" width="520" height="14" fill="#EDE9E1"/><rect x="470" y="377" width="520.0" height="14" fill="#C0392B"/><text x="1004" y="390" font-family="'Noto Serif SC',serif" font-size="17" font-weight="700" fill="#17161A">100%</text><text x="66" y="412" font-family="'HarmonyOS Sans SC',sans-serif" font-size="12" fill="#A89F92">13 指标 / 8 场景 / 8 角色</text>
<line x1="66" y1="430" x2="1114" y2="430" stroke="#17161A" stroke-width="1.6"/>
<text x="66" y="456" font-family="'HarmonyOS Sans SC',sans-serif" font-size="13" fill="#6B6660">测试套件 42 项全部通过（单元 + 集成 + 端到端）</text>
</svg>